<svg width="192" height="192" viewBox="0 0 192 192" fill="none" xmlns="http://www.w3.org/2000/svg">
<mask id="path-1-outside-1_1_36" maskUnits="userSpaceOnUse" x="38.759" y="55.2471" width="115" height="110" fill="black">
<rect fill="white" x="38.759" y="55.2471" width="115" height="110"/>
<path fill-rule="evenodd" clip-rule="evenodd" d="M83.6325 80.9916C83.7094 80.2522 83.7488 79.5017 83.7488 78.742C83.7488 66.8707 74.1252 57.2471 62.2539 57.2471C50.3826 57.2471 40.759 66.8707 40.759 78.742C40.759 90.6133 50.3826 100.237 62.2539 100.237L62.3538 100.237C59.9681 105.199 58.6315 110.761 58.6315 116.635C58.6315 136.925 74.5788 153.491 94.6231 154.481L89.4554 162.409H102.545L97.4009 154.518C117.924 154.052 134.418 137.27 134.418 116.635C134.418 110.753 133.077 105.184 130.686 100.217C142.121 99.725 151.241 90.2985 151.241 78.742C151.241 66.8707 141.617 57.2472 129.746 57.2472C117.875 57.2472 108.251 66.8707 108.251 78.742C108.251 79.374 108.278 79.9997 108.332 80.6178C104.616 79.4004 100.647 78.742 96.5245 78.742C91.9979 78.742 87.6567 79.5357 83.6325 80.9916Z"/>
</mask>
<path fill-rule="evenodd" clip-rule="evenodd" d="M83.6325 80.9916C83.7094 80.2522 83.7488 79.5017 83.7488 78.742C83.7488 66.8707 74.1252 57.2471 62.2539 57.2471C50.3826 57.2471 40.759 66.8707 40.759 78.742C40.759 90.6133 50.3826 100.237 62.2539 100.237L62.3538 100.237C59.9681 105.199 58.6315 110.761 58.6315 116.635C58.6315 136.925 74.5788 153.491 94.6231 154.481L89.4554 162.409H102.545L97.4009 154.518C117.924 154.052 134.418 137.27 134.418 116.635C134.418 110.753 133.077 105.184 130.686 100.217C142.121 99.725 151.241 90.2985 151.241 78.742C151.241 66.8707 141.617 57.2472 129.746 57.2472C117.875 57.2472 108.251 66.8707 108.251 78.742C108.251 79.374 108.278 79.9997 108.332 80.6178C104.616 79.4004 100.647 78.742 96.5245 78.742C91.9979 78.742 87.6567 79.5357 83.6325 80.9916Z" fill="#387EB2"/>
<path d="M83.6325 80.9916L81.6432 80.7847L81.3133 83.9574L84.3129 82.8723L83.6325 80.9916ZM62.2539 100.237V102.237L62.2585 102.237L62.2539 100.237ZM62.3538 100.237L64.1563 101.103L65.538 98.2294L62.3492 98.2367L62.3538 100.237ZM94.6231 154.481L96.2986 155.573L98.2006 152.656L94.7218 152.484L94.6231 154.481ZM89.4554 162.409L87.78 161.317L85.7644 164.409H89.4554V162.409ZM102.545 162.409V164.409H106.236L104.22 161.317L102.545 162.409ZM97.4009 154.518L97.3556 152.519L93.7633 152.6L95.7255 155.61L97.4009 154.518ZM130.686 100.217L130.6 98.2186L127.567 98.3491L128.884 101.084L130.686 100.217ZM108.332 80.6178L107.709 82.5184L110.585 83.4606L110.324 80.4456L108.332 80.6178ZM81.7488 78.742C81.7488 79.4325 81.713 80.1139 81.6432 80.7847L85.6218 81.1984C85.7058 80.3905 85.7488 79.5709 85.7488 78.742H81.7488ZM62.2539 59.2471C73.0206 59.2471 81.7488 67.9753 81.7488 78.742H85.7488C85.7488 65.7662 75.2298 55.2471 62.2539 55.2471V59.2471ZM42.759 78.742C42.759 67.9753 51.4872 59.2471 62.2539 59.2471V55.2471C49.278 55.2471 38.759 65.7662 38.759 78.742H42.759ZM62.2539 98.2369C51.4872 98.2369 42.759 89.5088 42.759 78.742H38.759C38.759 91.7179 49.278 102.237 62.2539 102.237V98.2369ZM62.3492 98.2367L62.2493 98.2369L62.2585 102.237L62.3584 102.237L62.3492 98.2367ZM60.6315 116.635C60.6315 111.067 61.8978 105.801 64.1563 101.103L60.5513 99.3701C58.0384 104.597 56.6315 110.455 56.6315 116.635H60.6315ZM94.7218 152.484C75.7371 151.546 60.6315 135.854 60.6315 116.635H56.6315C56.6315 137.997 73.4205 155.436 94.5244 156.479L94.7218 152.484ZM91.1309 163.501L96.2986 155.573L92.9477 153.389L87.78 161.317L91.1309 163.501ZM102.545 160.409H89.4554V164.409H102.545V160.409ZM95.7255 155.61L100.869 163.501L104.22 161.317L99.0764 153.426L95.7255 155.61ZM132.418 116.635C132.418 136.181 116.794 152.078 97.3556 152.519L97.4463 156.518C119.053 156.027 136.418 138.359 136.418 116.635H132.418ZM128.884 101.084C131.148 105.787 132.418 111.06 132.418 116.635H136.418C136.418 110.446 135.007 104.581 132.488 99.3491L128.884 101.084ZM149.241 78.742C149.241 89.2228 140.97 97.7726 130.6 98.2186L130.772 102.215C143.272 101.677 153.241 91.3743 153.241 78.742H149.241ZM129.746 59.2472C140.513 59.2472 149.241 67.9753 149.241 78.742H153.241C153.241 65.7662 142.722 55.2472 129.746 55.2472V59.2472ZM110.251 78.742C110.251 67.9753 118.979 59.2472 129.746 59.2472V55.2472C116.77 55.2472 106.251 65.7662 106.251 78.742H110.251ZM110.324 80.4456C110.276 79.8846 110.251 79.3165 110.251 78.742H106.251C106.251 79.4316 106.281 80.1147 106.339 80.7901L110.324 80.4456ZM96.5245 80.742C100.433 80.742 104.192 81.3661 107.709 82.5184L108.955 78.7172C105.04 77.4348 100.861 76.742 96.5245 76.742V80.742ZM84.3129 82.8723C88.1221 81.4942 92.2332 80.742 96.5245 80.742V76.742C91.7626 76.742 87.1914 77.5772 82.9521 79.1109L84.3129 82.8723Z" fill="black" mask="url(#path-1-outside-1_1_36)"/>
<path d="M96 156.561C131.592 156.561 160.424 127.566 160.424 91.8261C160.424 56.0857 131.592 27.0909 96 27.0909C60.4079 27.0909 31.5761 56.0857 31.5761 91.8261C31.5761 127.566 60.4079 156.561 96 156.561Z" stroke="black" stroke-width="5"/>
<path d="M126.216 118.941C125.157 119.865 121.62 108.305 115.891 101.733C110.162 95.1603 102.738 91.3982 103.797 90.4751C104.856 89.5519 113.454 92.4667 119.183 99.0393C124.912 105.612 127.275 118.018 126.216 118.941Z" fill="white"/>
</svg>
